<svg xmlns="http://www.w3.org/2000/svg" width="0" height="0" style="position:absolute"><symbol id="icon-arrow-left" viewBox="0 0 172 10"><style>.st0{fill:none;stroke:#000;stroke-width:2}</style><path class="st0" d="M172 8.5H3L10.5 1"/></symbol><symbol id="icon-arrow-left-2" viewBox="0 0 172 10"><path d="M172 8.5H3L10.5 1" stroke="#fff" stroke-width="2"/></symbol><symbol id="icon-arrow-right" viewBox="0 0 172 10"><style>.st0{fill:none;stroke:#000;stroke-width:2}</style><path class="st0" d="M0 1.5h169L161.5 9"/></symbol><symbol id="icon-arrow-right-2" viewBox="0 0 172 10"><path d="M0 1.5h169L161.5 9" stroke="#fff" stroke-width="2"/></symbol><symbol id="icon-button-next" viewBox="0 0 172 10"><path d="M0 1.5h169L161.5 9" stroke="#fff" stroke-width="2"/></symbol><symbol id="icon-button-prev" viewBox="0 0 172 10"><path d="M172 8.5H3L10.5 1" stroke="#fff" stroke-width="2"/></symbol><symbol id="icon-buy-mobile" viewBox="0 0 32 32"><circle cx="16" cy="16" r="15.5" stroke="#fff"/><path d="M12.933 18.613h7.672a.425.425 0 00.407-.315l1.692-6.072a.443.443 0 00-.07-.38.42.42 0 00-.337-.173h-10.34l-.302-1.396a.426.426 0 00-.413-.34H8.704a.428.428 0 00-.423.434c0 .24.19.434.423.434h2.199l1.527 7.048c-.45.2-.765.66-.765 1.194 0 .717.57 1.301 1.269 1.301h7.67a.429.429 0 00.423-.434c0-.24-.19-.434-.423-.434h-7.67a.429.429 0 01-.423-.433c0-.24.19-.433.422-.434zm8.802-6.073l-1.45 5.205h-7.012l-1.128-5.205h9.59zm-9.224 9.289c0 .68.54 1.233 1.203 1.233s1.203-.553 1.203-1.233-.54-1.234-1.203-1.234-1.203.553-1.203 1.234zm1.203-.412c.221 0 .401.185.401.412 0 .226-.18.41-.4.41a.407.407 0 01-.402-.41c0-.227.18-.412.401-.412zm4.775.412c0 .68.54 1.233 1.203 1.233s1.203-.553 1.203-1.233-.54-1.234-1.203-1.234-1.203.553-1.203 1.234zm1.203-.412c.221 0 .401.185.401.412 0 .226-.18.41-.4.41a.407.407 0 01-.402-.41c0-.227.18-.412.401-.412z" fill="#fff"/></symbol><symbol id="icon-cap" viewBox="0 0 22 16"><path d="M16.5 1.9v.8H18c2.2 0 4 1.9 4 4.2S20.2 11 18 11h-2.1c-1.2 2.9-3.9 5-7.1 5H7.7C3.4 16 0 12.4 0 8V1.9C0 .8.8 0 1.8 0h12.8c1.1 0 1.9.9 1.9 1.9zm-2.2.4H2.2V8c0 3.2 2.5 5.7 5.5 5.7h1.1c3 0 5.5-2.6 5.5-5.7V2.3zM18 8.8c1 0 1.8-.8 1.8-1.9S19 5 18 5h-1.5v3.8H18z"/></symbol><symbol id="icon-check" viewBox="0 0 78.4 78.4"><path d="M78 19L29.5 67.6c-.4.4-1.1.4-1.5 0L.3 40c-.4-.4-.4-1.1 0-1.5L7 31.8c.4-.4 1.1-.4 1.5 0l20.1 20.1 41.1-41.1c.4-.4 1.1-.4 1.5 0l6.7 6.7c.6.4.6 1.1.1 1.5z"/></symbol><symbol id="icon-close" viewBox="0 0 47.971 47.971"><path d="M28.228 23.986L47.092 5.122a2.998 2.998 0 000-4.242 2.998 2.998 0 00-4.242 0L23.986 19.744 5.121.88a2.998 2.998 0 00-4.242 0 2.998 2.998 0 000 4.242l18.865 18.864L.879 42.85a2.998 2.998 0 104.242 4.241l18.865-18.864L42.85 47.091c.586.586 1.354.879 2.121.879s1.535-.293 2.121-.879a2.998 2.998 0 000-4.242L28.228 23.986z"/></symbol><symbol id="icon-corn" viewBox="0 0 20 21"><path d="M16.5 1.2c.5.3.5.9.2 1.2L2.5 16.7c-.4.4-1 .3-1.2-.1-2.4-3.6-1.5-9 2.4-12.9 3.8-3.8 9.2-4.8 12.8-2.5zM3.7 18.9c-.4-.3-.5-.8-.1-1.2l14-14.2c.4-.3 1-.3 1.2.1 2.2 3.5 1.3 8.8-2.5 12.7-3.7 3.8-9 4.8-12.6 2.6z"/></symbol><symbol id="icon-cup" viewBox="0 0 32 32"><path d="M24.5 9.905v.762h1.467c2.236 0 4.033 1.866 4.033 4.19 0 2.324-1.797 4.19-4.033 4.19h-2.054C22.74 21.944 19.99 24 16.8 24h-1.1C11.447 24 8 20.419 8 16V9.905C8 8.838 8.807 8 9.833 8h12.834c1.026 0 1.833.876 1.833 1.905zm-2.2.38H10.2V16c0 3.162 2.457 5.714 5.5 5.714h1.1c3.043 0 5.5-2.552 5.5-5.714v-5.714zm3.667 6.515c1.026 0 1.833-.838 1.833-1.905 0-1.066-.807-1.904-1.833-1.904H24.5v3.047c0 .267 0 .495-.037.762h1.504z"/></symbol><symbol id="icon-cup-full" viewBox="0 0 28 22"><path d="M21.1-.1c.9 0 1.8.7 1.8 1.8v.7h2.4c1.2 0 2.2 1 2.1 2.2-.2 3-1.3 5.6-2.8 7.5-1.3 1.7-3 2.9-4.7 3.1-2 3.3-4.8 5.6-8.3 5.6-3.6 0-6.6-2.5-8.5-6-2-3.5-3-8.3-2.8-13.3C.3.7 1-.1 2-.1h19.1zM23 4.1c-.1 3.3-.8 6.4-1.9 9 .8-.4 1.5-1.1 2.3-2 1.3-1.6 2.3-4 2.5-6.6 0-.2-.1-.4-.4-.4H23zM11.6 19.2c2.8 0 5.3-1.9 7.1-5.1 1.8-3.2 2.8-7.7 2.6-12.4H2s0 .1-.1.1c-.2 4.7.8 9.1 2.6 12.3 1.9 3.2 4.4 5.1 7.1 5.1zM1.5 22c-.3 0-.5-.2-.5-.4 0-.3.2-.5.5-.5h20.3c.3 0 .5.2.5.5 0 .2-.2.5-.4.5L1.5 22zM19.8 3.7c.3 7.6-3.3 14.3-8.2 14.3-5 0-8.5-6.8-8.2-14.3 0-.5.4-.8.8-.8H19c.4-.1.8.3.8.8z"/></symbol><symbol id="icon-facebook" viewBox="0 0 512 512"><path d="M288 176v-64c0-17.664 14.336-32 32-32h32V0h-64c-53.024 0-96 42.976-96 96v80h-64v80h64v256h96V256h64l32-80h-96z"/></symbol><symbol id="icon-instagram" viewBox="0 0 169.1 169.1"><path d="M122.4 0H46.7C20.9 0 0 20.9 0 46.7v75.8c0 25.7 20.9 46.7 46.7 46.7h75.8c25.7 0 46.7-20.9 46.7-46.7V46.7C169.1 20.9 148.1 0 122.4 0zm31.7 122.4c0 17.5-14.2 31.7-31.7 31.7H46.7c-17.5 0-31.7-14.2-31.7-31.7V46.7C15 29.2 29.2 15 46.7 15h75.8c17.5 0 31.7 14.2 31.7 31.7l-.1 75.7z"/><path d="M84.5 41C60.5 41 41 60.5 41 84.5s19.5 43.6 43.6 43.6 43.6-19.5 43.6-43.6c-.1-24-19.6-43.5-43.7-43.5zm0 72.1c-15.7 0-28.6-12.8-28.6-28.6C56 68.8 68.8 56 84.5 56s28.6 12.8 28.6 28.6c0 15.7-12.8 28.5-28.6 28.5zm45.4-84.8c-2.9 0-5.7 1.2-7.8 3.2-2.1 2-3.2 4.9-3.2 7.8 0 2.9 1.2 5.7 3.2 7.8 2 2 4.9 3.2 7.8 3.2 2.9 0 5.7-1.2 7.8-3.2 2.1-2 3.2-4.9 3.2-7.8 0-2.9-1.2-5.7-3.2-7.8-2-2.1-4.9-3.2-7.8-3.2z"/></symbol><symbol id="icon-like" viewBox="0 0 32 32"><path d="M2 11.347c0-7.283 11.172-8.127 13.5-3.41V27C14.284 26.57 2 21.96 2 11.347zm27 0c0-7.283-11.172-8.127-13.5-3.41V27c1.216-.43 13.5-5.04 13.5-15.653z" fill="#fff"/></symbol><symbol id="icon-logo" viewBox="0 0 326 68"><path d="M93.9 46.4c1.5-.5 2.9-.7 4-.7 1.5 0 2.6.4 3.3 1.1.8.7 1.2 1.9 1.2 3.4v3.6c0 .8-.1 1.5-.2 2.2-.1.7-.3 1.3-.6 1.8s-.8.9-1.5 1.2c-.7.3-1.5.5-2.6.5-.6 0-1.1-.1-1.6-.1-.4-.1-.8-.2-1.2-.4v5.7h-2V46.9l1.2-.5zm3.6 11.4c.7 0 1.2-.1 1.6-.3.4-.2.7-.5.8-.9.2-.3.3-.8.3-1.3.1-.5.1-1 .1-1.6v-3.5c0-.9-.2-1.6-.7-2.2-.4-.5-1.2-.8-2.2-.8-.8 0-1.6.2-2.7.5v6.7c0 .5.1.9.1 1.3.1.4.2.7.3 1 .2.3.4.5.8.7.5.3 1 .4 1.6.4zm10.4-17.3h-2.1v18.8h2.1V40.5zm13.2 5.4v12.7c-.8.3-1.6.5-2.4.6s-1.5.2-2.2.2c-.8 0-1.5-.1-2.1-.3-.7-.2-1.2-.5-1.7-.9-.4-.4-.8-.9-1.1-1.4-.2-.6-.4-1.3-.4-2v-9h2.1v8.9c0 1 .3 1.7 1 2.2.6.5 1.5.8 2.6.8.3 0 .7-.1 1-.1.3-.1.7-.1 1.1-.2V45.9h2.1zm7 12c.7 0 1.2-.1 1.6-.4.4-.2.6-.7.6-1.4 0-.5-.2-.9-.4-1.2-.3-.3-.7-.7-1.2-1-.5-.3-1-.6-1.6-.9-.6-.3-1.1-.6-1.6-1-.5-.3-.9-.8-1.2-1.3-.3-.5-.4-1-.4-1.7 0-1.1.4-2 1.1-2.6.7-.5 1.8-.8 3.1-.8s2.4.3 3.1.9c.8.6 1.2 1.5 1.2 2.7h-1.9c0-.3-.1-.7-.2-.9-.1-.2-.3-.5-.5-.6-.2-.1-.4-.2-.7-.3-.3-.1-.6-.1-.9-.1-.3 0-.6.1-.8.1-.3 0-.5.1-.7.2-.2.1-.4.3-.5.5-.1.2-.2.5-.2.8 0 .5.2.9.4 1.2.3.3.7.6 1.2 1 .5.3 1 .6 1.6.9.6.3 1.1.6 1.6 1s.9.8 1.2 1.3c.3.5.4 1.1.4 1.8 0 1.1-.4 2-1.2 2.6-.8.6-1.8.9-3.1.9s-2.4-.3-3.1-.9c-.7-.6-1.1-1.5-1.1-2.7h2c0 .8.2 1.3.6 1.6.3.2.8.3 1.6.3z"/><path d="M93.9 46.4c1.5-.5 2.9-.7 4-.7 1.5 0 2.6.4 3.3 1.1.8.7 1.2 1.9 1.2 3.4v3.6c0 .8-.1 1.5-.2 2.2-.1.7-.3 1.3-.6 1.8s-.8.9-1.5 1.2c-.7.3-1.5.5-2.6.5-.6 0-1.1-.1-1.6-.1-.4-.1-.8-.2-1.2-.4v5.7h-2V46.9l1.2-.5zm3.6 11.4c.7 0 1.2-.1 1.6-.3.4-.2.7-.5.8-.9.2-.3.3-.8.3-1.3.1-.5.1-1 .1-1.6v-3.5c0-.9-.2-1.6-.7-2.2-.4-.5-1.2-.8-2.2-.8-.8 0-1.6.2-2.7.5v6.7c0 .5.1.9.1 1.3.1.4.2.7.3 1 .2.3.4.5.8.7.5.3 1 .4 1.6.4zm10.4-17.3h-2.1v18.8h2.1V40.5zm13.2 5.4v12.7c-.8.3-1.6.5-2.4.6s-1.5.2-2.2.2c-.8 0-1.5-.1-2.1-.3-.7-.2-1.2-.5-1.7-.9-.4-.4-.8-.9-1.1-1.4-.2-.6-.4-1.3-.4-2v-9h2.1v8.9c0 1 .3 1.7 1 2.2.6.5 1.5.8 2.6.8.3 0 .7-.1 1-.1.3-.1.7-.1 1.1-.2V45.9h2.1zm7 12c.7 0 1.2-.1 1.6-.4.4-.2.6-.7.6-1.4 0-.5-.2-.9-.4-1.2-.3-.3-.7-.7-1.2-1-.5-.3-1-.6-1.6-.9-.6-.3-1.1-.6-1.6-1-.5-.3-.9-.8-1.2-1.3-.3-.5-.4-1-.4-1.7 0-1.1.4-2 1.1-2.6.7-.5 1.8-.8 3.1-.8s2.4.3 3.1.9c.8.6 1.2 1.5 1.2 2.7h-1.9c0-.3-.1-.7-.2-.9-.1-.2-.3-.5-.5-.6-.2-.1-.4-.2-.7-.3-.3-.1-.6-.1-.9-.1-.3 0-.6.1-.8.1-.3 0-.5.1-.7.2-.2.1-.4.3-.5.5-.1.2-.2.5-.2.8 0 .5.2.9.4 1.2.3.3.7.6 1.2 1 .5.3 1 .6 1.6.9.6.3 1.1.6 1.6 1s.9.8 1.2 1.3c.3.5.4 1.1.4 1.8 0 1.1-.4 2-1.2 2.6-.8.6-1.8.9-3.1.9s-2.4-.3-3.1-.9c-.7-.6-1.1-1.5-1.1-2.7h2c0 .8.2 1.3.6 1.6.3.2.8.3 1.6.3zM0 35.9V11h6.9c2.2 0 3.9.5 4.9 1.3 1 .9 1.6 2.3 1.6 4.4v13.5c0 1-.1 1.9-.4 2.6-.2.7-.7 1.3-1.2 1.7-.5.5-1.2.7-2.1 1-.8.2-1.8.3-3 .3h-.2l-6.5.1zm10.4-19.1c0-.5-.1-1-.2-1.4-.1-.4-.3-.7-.5-1-.2-.2-.6-.5-1.1-.6-.4-.1-1.1-.2-1.7-.2H3.1v19.6h3.8c.7 0 1.3-.1 1.7-.2.4-.1.8-.3 1.1-.5.2-.2.4-.6.5-1 .1-.4.2-.9.2-1.4V16.8zM21.7 11v24.8h-3V11h3zm8.4 24.9h-3v-23c.7-.6 1.5-1 2.2-1.3.8-.3 1.6-.5 2.3-.7.7-.1 1.5-.2 2-.2.6-.1 1.1-.1 1.5-.1 1.3 0 2.4.2 3.2.6.7.4 1.3 1 1.6 1.6.3.7.6 1.4.6 2.2.1.8.1 1.6.1 2.3v18.4h-3v-19c0-.5-.1-1-.1-1.4-.1-.4-.2-.8-.4-1.1-.2-.3-.5-.5-.9-.7-.4-.2-.9-.2-1.6-.2-.2 0-.4 0-.8.1-.3.1-.7.1-1.2.1-.4.1-.8.2-1.3.3-.4.1-.8.3-1.2.5v21.6zm26.4 0v-7.8h-7.6v7.7h-3V16.7c0-2 .6-3.5 1.6-4.5 1.1-1 2.8-1.5 5.2-1.5 2.4 0 4.1.5 5.2 1.5 1.1 1 1.7 2.5 1.7 4.5v19.2h-3.1zm0-18.8c0-.6-.1-1.1-.2-1.5-.1-.5-.3-.9-.6-1.1-.3-.3-.7-.6-1.2-.7-.5-.2-1.1-.2-1.9-.2-.8 0-1.5.1-2 .2-.5.2-.9.4-1.2.7-.2.2-.4.5-.4 1-.1.5-.1 1-.1 1.6v8.5h7.6v-8.5zm25.1-6.4c1.3 0 2.4.2 3.1.7.7.5 1.3 1 1.6 1.7.3.7.5 1.4.6 2.2.1.8.1 1.5.1 2.2v18.3h-3V17.6c0-.5-.1-1-.1-1.4-.1-.5-.1-1-.3-1.4-.2-.4-.4-.7-.7-1s-.8-.4-1.5-.4c-.2 0-.4 0-.7.1-.3.1-.6.1-1 .1-.4.1-.7.2-1.2.3-.4.1-.8.3-1.2.5v21.5h-3V16.7c0-.5-.1-.9-.1-1.3-.1-.4-.2-.7-.4-1-.2-.3-.4-.5-.8-.7-.3-.2-.8-.2-1.3-.2-.2 0-.4 0-.7.1-.3.1-.6.1-1 .1-.3.1-.7.2-1.1.3-.4.1-.8.3-1.2.5V36h-3.1V13c.7-.6 1.5-1 2.1-1.3.7-.3 1.4-.5 2.1-.7.7-.2 1.2-.2 1.8-.2.6 0 1-.1 1.3-.1 1 0 1.7.1 2.4.3.6.2 1.2.5 1.6.9.6-.3 1.2-.6 1.7-.7s1.1-.3 1.6-.4c.5-.1 1-.1 1.3-.2.5.1.9.1 1.1.1zm13.9.3v24.8h-3V11h3zm5.7 5.3c0-.9.1-1.6.1-2.2.1-.7.3-1.2.6-1.7s.7-.8 1.3-1c.6-.2 1.3-.3 2.3-.3h8.1l-1.1 2.6h-5.1c-.8 0-1.4.1-1.9.1-.4.1-.7.1-1 .3-.2.2-.3.4-.3.8-.1.3-.1.9-.1 1.5v14.2c0 .6.1 1.1.1 1.4.1.3.1.6.2.8.1.2.4.3.7.3.3.1.8.1 1.3.1h7l-1.1 2.6h-7c-1.1 0-1.9-.1-2.5-.4-.6-.3-1-.6-1.3-1.1-.3-.5-.4-1-.5-1.7s-.1-1.4-.1-2.1V16.3h.3zm27.4 19.6v-7.8H121v7.7h-3V16.7c0-2 .6-3.5 1.6-4.5s2.8-1.5 5.2-1.5c2.4 0 4.1.5 5.2 1.5s1.7 2.5 1.7 4.5v19.2h-3.1zm0-18.8c0-.6-.1-1.1-.2-1.5-.1-.5-.3-.9-.6-1.1-.3-.3-.7-.6-1.2-.7-.5-.2-1.1-.2-1.9-.2-.8 0-1.5.1-2 .2-.5.2-.9.4-1.2.7s-.4.7-.5 1.1c-.1.5-.1 1-.1 1.6v8.5h7.6l.1-8.6zM153.9 0h1.8v68h-1.8V0zm147.7 10.1H201.1c-13.5 0-24.4 11.1-24.4 24.8s10.9 24.8 24.4 24.8h100.5c13.4 0 24.4-11.1 24.4-24.8s-10.9-24.8-24.4-24.8zm-.3 46.6h-99.9c-11.8 0-21.4-9.7-21.4-21.8s9.6-21.8 21.4-21.8h99.9c11.8 0 21.4 9.8 21.4 21.8s-9.6 21.8-21.4 21.8z"/><path d="M217.7 31.6c-1 0-1.1.9-1.1 1.5v.6h2.1v-.6c.1-.6 0-1.5-1-1.5zm59.2 2.4v3.3c0 .8 0 2.1 1.1 2.1.3 0 .7-.1 1-.3v-6.6c-.3-.2-.6-.3-1-.3-1.1 0-1.1.9-1.1 1.8zm-75.2-6.5h-.5V39h.5c1.3 0 1.8-.5 1.8-2v-7.6c-.1-1.4-.5-1.9-1.8-1.9zm46 4.1c-1.2 0-1 1.4-1 2.2v4.3c0 .8-.1 2 1 2s1-1.2 1-2v-4.3c.1-.8.2-2.2-1-2.2z"/><path d="M301.4 17.6h-99.8c-9.3 0-16.9 7.7-16.9 17.2S192.3 52 201.6 52h99.8c9.3 0 16.9-7.7 16.9-17.2s-7.6-17.2-16.9-17.2zm-89.5 7.8h11.8v1h-11.8v-1zm-2.3 11.4c0 2-.1 3.5-1.6 4.9-1.4 1.4-3.2 1.5-5 1.5h-8.7v-3.6c.7-.3.8-.9.8-1.6v-9.8c0-.7-.1-1.3-.8-1.6V23h8.6c1.7 0 3.6 0 5 1.1 1.6 1.3 1.8 3.1 1.8 5.1v7.6zm14.5-3.3V37h-7.5v1.4c0 .7.1 1.7 1 1.7s1-.9 1-1.6V38h5.5v3.7c-1.2 1.1-3.4 1.7-5.7 1.9-2.2.2-4.5-.2-5.7-1.1-1.5-1.2-1.6-2.8-1.6-4.6v-4c-.1-4 1.2-5.7 6.4-5.7 5.4-.1 6.7 1.7 6.6 5.3zm15.7 9.8h-14.4v-3.6c.7-.5.7-1.2.7-2v-9.1c0-.8.1-1.5-.7-2V23h7.5v3.6c-.7.5-.7 1.2-.7 2V39h.6c1.6 0 1.6-1 1.6-2.2v-3.3h5.4v9.8zm14.4-5.7c0 1.6 0 3.5-1.4 4.7-1.3 1.2-3.3 1.3-4.9 1.3-1.5 0-3.6-.1-4.9-1-1.8-1.2-1.8-3-1.8-5v-3.9c0-1.6 0-3.3 1.4-4.4 1.3-1.1 3.1-1.2 4.7-1.2 1.5 0 3.7.1 5 .9 1.8 1.1 1.9 2.9 1.9 4.8v3.8zm9.9 5.7c-.3-1.5-.3-3.1-.3-4.6v-4.3c0-.1.1-.8-.2-1.3-.4-.6-1-1-1.9-.6V38c0 .7-.1 1.6.7 2v3.3h-6.8V40c.7-.4.7-1.1.7-1.9v-4.5c0-.8 0-1.3-.7-1.8v-3.3h5.9v.9c1.5-1 2.8-1.3 3.9-1.2 1.1 0 2.1.4 2.7 1 1 1 1.1 2.1 1.1 3.3V38c0 .7-.1 1.6.6 2v3.3h-5.7zm21-11.5c-.7.4-.7 1.1-.7 1.8v9c0 1.7.1 3.9-1.2 5.2-1.3 1.2-3.4 1.5-5 1.5-2.4 0-4.3-.4-6.4-1.6v-3.6h5.1c0 .3 0 .8.2 1.1.2.3.4.6.9.6 1.2 0 1.1-1.5 1.1-2.3v-.9c-1 .8-2.2 1.1-3.2 1.1-2.8 0-4.3-1.4-4.3-4.6v-5.6c0-3.2.8-5.2 4.1-5.2 1.3 0 2.6.4 3.6 1.2v-.8h6l-.2 3.1zm15.7 11.5H295c-.3-1.5-.3-3.1-.3-4.6v-4.3c0-.1.1-.8-.2-1.3-.4-.6-1-1-1.9-.6V38c0 .7-.1 1.6.7 2v3.3h-6.8V40c.7-.4.7-1.1.7-1.9v-9.7c0-.8.1-1.6-.7-2v-3.3h6.2v6c1.1-.7 2.4-1 3.7-1 1.1 0 2.1.4 2.7 1 1 1 1.1 2.1 1.1 3.3V38c0 .7-.1 1.6.6 2v3.3zm4.6-20.4c1.4 0 2.9.8 2.9 2.4 0 1.6-1.6 2.3-2.9 2.3-1.4 0-3-.7-3-2.4 0-1.6 1.6-2.3 3-2.3zm3.6 20.4h-6.8V40c.7-.4.7-1.1.7-1.9v-4.4c0-.8.1-1.5-.7-2v-3.3h6.1V38c0 .8-.1 1.5.7 2v3.3z"/></symbol><symbol id="icon-milk" viewBox="0 0 13 29"><style>.st0{fill-rule:evenodd;clip-rule:evenodd}</style><path id="path2" d="M10.7 25.5v-9H2.5v9c0 .5.4.8.8.8h6.6c.4 0 .8-.4.8-.8z"/><path id="path4" class="st0" d="M3.3 3.6l-2 5.8c-.4 1.2-.6 2.5-.6 3.8V26c0 1.2 1 2.3 2.3 2.3h7.5c1.2 0 2.3-1 2.3-2.3V13.4c0-1.4-.2-2.7-.8-4L9.7 3.6c.6 0 1.1-.5 1.1-1.1v-.7c0-.6-.5-1.1-1.1-1.1H3.3c-.6 0-1.1.5-1.1 1.1v.8c-.1.5.4 1 1.1 1zm0-2.2c-.3 0-.4.1-.4.4v.8c0 .2.2.4.4.4h6.4c.2 0 .4-.2.4-.4v-.8c0-.2-.2-.4-.4-.4H3.3zM2 9.7l2.2-6.1H9l2.3 6c.5 1.2.7 2.4.7 3.7V26c0 .8-.7 1.5-1.5 1.5H2.9c-.8 0-1.5-.7-1.5-1.5V13.3c0-1.2.2-2.4.6-3.6z"/></symbol><symbol id="icon-milk-full" viewBox="0 0 17 36"><style>.st0{fill-rule:evenodd;clip-rule:evenodd}</style><path id="path2" d="M3.9 12.1c-.4 1.1-.5 2.1-.5 3.2v16.1c0 .6.5 1 1 1h8.2c.6 0 1-.5 1-1v-16c0-1.2-.2-2.4-.6-3.4l-2.1-5.6h-5l-2 5.7z"/><path id="path4" class="st0" d="M2.7 2.6c0 .8.6 1.5 1.4 1.6l-2.5 7C1.1 12.7.8 14.4.8 16v16.1c0 1.7 1.4 3 3 3h9.4c1.7 0 3-1.4 3-3V16.2c0-1.7-.3-3.5-1-5.1l-2.6-6.9c.8-.2 1.4-.8 1.4-1.6v-.9c0-.9-.7-1.6-1.6-1.6h-8c-.9 0-1.6.7-1.6 1.6v.9zm1.6-1.2c-.1 0-.2.1-.2.2v.9c0 .1.1.2.2.2h8c.1 0 .2-.1.2-.2v-.8c0-.1-.1-.2-.2-.2h-8zM2.9 11.7l2.7-7.5h5.7l2.8 7.4c.6 1.4.9 3 .9 4.6v15.9c0 .9-.7 1.7-1.7 1.7H3.9c-.9 0-1.7-.7-1.7-1.7v-16c0-1.4.3-3 .7-4.4z"/></symbol><symbol id="icon-point-8" viewBox="0 0 207 52"><rect x="9" y="23" width="65" height="6" rx="3" fill="#53ADD6"/><rect x="74" y="23" width="60" height="6" rx="3" fill="#fff"/><rect x="134" y="23" width="60" height="6" rx="3" fill="#fff"/><circle cx="132" cy="26" r="7" fill="#fff"/><circle cx="191" cy="26" r="7" fill="#fff"/><circle cx="16" cy="26" r="7" fill="#53ADD6"/><circle cx="74" cy="26" r="7" fill="#53ADD6"/></symbol><symbol id="icon-thermometer" viewBox="0 0 20 29"><style>.st0{fill-rule:evenodd;clip-rule:evenodd}</style><path id="path2" d="M9.6 22.2c0-1.5-1.1-2.7-2.5-2.9v-4.9c0-.2-.2-.4-.4-.4s-.4.2-.4.4v4.9c-1.4.2-2.5 1.4-2.5 2.9 0 1.6 1.3 2.9 2.9 2.9 1.6 0 2.9-1.3 2.9-2.9z"/><path id="path4" class="st0" d="M6.9.5C5 .5 3.6 1.9 3.6 3.8v11.4c0 .9-.5 1.7-1.1 2.4-1.2 1.1-2 2.8-2 4.6 0 3.5 2.8 6.3 6.3 6.3s6.3-2.8 6.3-6.3c0-1.7-.7-3.3-1.8-4.5-.6-.6-1.1-1.4-1.1-2.3V3.8C10.2 1.9 8.7.5 6.9.5zM4.6 3.8c0-1.3 1-2.3 2.3-2.3s2.3 1 2.3 2.3v11.7c0 1.2.7 2.3 1.4 3 .9.9 1.5 2.2 1.5 3.7 0 2.9-2.3 5.3-5.3 5.3-2.9 0-5.3-2.3-5.3-5.3 0-1.5.7-2.9 1.7-3.8.6-.7 1.4-1.8 1.4-3.1V3.8z"/><path id="path6" d="M12.9 2.2h5.8c.2 0 .4.2.4.4s-.2.4-.4.4h-5.8c-.2 0-.4-.2-.4-.4s.2-.4.4-.4z"/><path id="path8" d="M12.9 4.3h2.9c.2 0 .4.2.4.4s-.2.4-.4.4h-2.9c-.2 0-.4-.2-.4-.4s.2-.4.4-.4z"/><path id="path10" d="M18.7 6.4h-5.8c-.2 0-.4.2-.4.4s.2.4.4.4h5.8c.2 0 .4-.2.4-.4.1-.2-.2-.4-.4-.4z"/><path id="path12" d="M12.9 8.4h2.9c.2 0 .4.2.4.4s-.2.4-.4.4h-2.9c-.2 0-.4-.2-.4-.4 0-.1.2-.4.4-.4z"/><path id="path14" d="M18.7 10.5h-5.8c-.2 0-.4.2-.4.4s.2.4.4.4h5.8c.2 0 .4-.2.4-.4.1-.2-.2-.4-.4-.4z"/><path id="path16" d="M12.9 14.7h5.8c.2 0 .4.2.4.4s-.2.4-.4.4h-5.8c-.2 0-.4-.2-.4-.4s.2-.4.4-.4z"/><path id="path18" d="M15.8 12.6h-2.9c-.2 0-.4.2-.4.4s.2.4.4.4h2.9c.2 0 .4-.2.4-.4s-.1-.4-.4-.4z"/></symbol><symbol id="icon-thermometer-full" viewBox="0 0 25 37"><style>.st0{fill-rule:evenodd;clip-rule:evenodd}</style><path id="path2" d="M8.7 31.8c2 0 3.6-1.6 3.6-3.6 0-1.8-1.3-3.3-3.1-3.6V6.3c0-.3-.3-.5-.5-.5-.3 0-.5.3-.5.5v18.3c-1.8.3-3.1 1.8-3.1 3.6 0 2 1.6 3.6 3.6 3.6z"/><path id="path4" class="st0" d="M4.4 5.2c0-2.5 2-4.5 4.5-4.5s4.5 2 4.5 4.5v14.6c0 .9.5 1.9 1.3 2.6 1.5 1.5 2.4 3.6 2.4 5.8 0 4.6-3.7 8.2-8.2 8.2-4.6 0-8.2-3.7-8.2-8.2 0-2.3 1-4.5 2.6-6 .7-.9 1.3-1.8 1.3-2.7V5.2zm4.5-2.4c-1.4 0-2.5 1.1-2.5 2.5v14.3c0 1.7-1 3.1-1.8 4.1-1.2 1.1-2 2.8-2 4.6 0 3.5 2.8 6.2 6.2 6.2 3.5 0 6.2-2.8 6.2-6.2 0-1.7-.7-3.3-1.8-4.4-.9-.9-1.8-2.3-1.8-4V5.2c0-1.3-1.1-2.4-2.5-2.4z"/><path id="path6" d="M16.4 3.3h7.2c.3 0 .5.3.5.5 0 .3-.3.5-.5.5h-7.2c-.3 0-.5-.3-.5-.5s.3-.5.5-.5z"/><path id="path8" d="M16.4 5.9H20c.3 0 .5.3.5.5 0 .3-.3.5-.5.5h-3.6c-.3 0-.5-.3-.5-.5 0-.3.3-.5.5-.5z"/><path id="path10" d="M23.7 8.5h-7.2c-.3 0-.5.3-.5.5 0 .3.3.5.5.5h7.2c.3 0 .5-.3.5-.5 0-.3-.3-.5-.5-.5z"/><path id="path12" d="M16.4 11.1H20c.3 0 .5.3.5.5 0 .3-.3.5-.5.5h-3.6c-.3 0-.5-.3-.5-.5 0-.3.3-.5.5-.5z"/><path id="path14" d="M23.7 13.6h-7.2c-.3 0-.5.3-.5.5s.3.5.5.5h7.2c.3 0 .5-.3.5-.5s-.3-.5-.5-.5z"/><path id="path16" d="M16.4 18.9h7.2c.3 0 .5.3.5.5 0 .3-.3.5-.5.5h-7.2c-.3 0-.5-.3-.5-.5 0-.3.3-.5.5-.5z"/><path id="path18" d="M20.1 16.3h-3.6c-.3 0-.5.2-.5.5s.3.5.5.5h3.6c.3 0 .5-.3.5-.5s-.3-.5-.5-.5z"/></symbol><symbol id="icon-tract-2" viewBox="0 0 189 22"><style>.st0{fill-rule:evenodd;clip-rule:evenodd}</style><path class="st0" d="M51 0H0v22h189V0H51zm10.6 8h27.1c1.1-2.4 3.5-4 6.3-4s5.2 1.6 6.3 4h31.3c1.1-2.4 3.5-4 6.3-4s5.2 1.6 6.3 4h30.3c1.1-2.4 3.5-4 6.3-4 3.9 0 7 3.1 7 7s-3.1 7-7 7c-2.8 0-5.2-1.6-6.3-4h-30.3c-1.1 2.4-3.5 4-6.3 4s-5.2-1.6-6.3-4h-31.3c-1.1 2.4-3.5 4-6.3 4s-5.2-1.6-6.3-4H61.6c-1.3 4.6-5.6 8-10.6 8s-9.3-3.4-10.6-8H13.3c-1.1 2.4-3.5 4-6.3 4-3.9 0-7-3.1-7-7s3.1-7 7-7c2.8 0 5.2 1.6 6.3 4h27.1C41.7 3.4 46 0 51 0s9.3 3.4 10.6 8z"/></symbol><symbol id="icon-tract-3" viewBox="0 0 189 22"><style>.st0{fill-rule:evenodd;clip-rule:evenodd}</style><path class="st0" d="M189 0H0v22h189V0zM71.3 14h41.1c1.3 4.6 5.6 8 10.6 8s9.3-3.4 10.6-8h42.1c1.1 2.4 3.5 4 6.3 4 3.9 0 7-3.1 7-7s-3.1-7-7-7c-2.8 0-5.2 1.6-6.3 4h-42.1c-1.3-4.6-5.6-8-10.6-8s-9.3 3.4-10.6 8H71.3c-1.1-2.4-3.5-4-6.3-4s-5.2 1.6-6.3 4H13.3C12.2 5.6 9.8 4 7 4c-3.9 0-7 3.1-7 7s3.1 7 7 7c2.8 0 5.2-1.6 6.3-4h45.3c1.1 2.4 3.5 4 6.3 4 2.9 0 5.3-1.6 6.4-4z"/></symbol><symbol id="icon-tract-4" viewBox="0 0 193 22"><style>.st0{fill-rule:evenodd;clip-rule:evenodd}</style><path class="st0" d="M182 0H0v22h193V0h-11zM71.3 8h45.3c1.1-2.4 3.5-4 6.3-4s5.2 1.6 6.3 4h42.1c1.3-4.6 5.6-8 10.6-8 6.1 0 11 4.9 11 11s-4.9 11-11 11c-5 0-9.3-3.4-10.6-8h-42.1c-1.1 2.4-3.5 4-6.3 4s-5.2-1.6-6.3-4H71.3c-1.1 2.4-3.5 4-6.3 4s-5.2-1.6-6.3-4H13.3c-1.1 2.4-3.5 4-6.3 4-3.9 0-7-3.1-7-7s3.1-7 7-7c2.8 0 5.2 1.6 6.3 4h45.3c1.1-2.4 3.5-4 6.3-4s5.3 1.6 6.4 4z"/></symbol><symbol id="icon-tract-4-2" viewBox="0 0 193 26"><style>.st0{fill-rule:evenodd;clip-rule:evenodd}</style><path class="st0" d="M0 0v26h193V0H0zm183.9 20c-2.8 0-5.2-1.6-6.3-4h-46.3c-1.1 2.4-3.5 4-6.3 4s-5.2-1.6-6.3-4H77.6c-1.3 4.6-5.6 8-10.6 8s-9.3-3.4-10.6-8H15.3c-1.1 2.4-3.5 4-6.3 4-3.9 0-7-3.1-7-7s3.1-7 7-7c2.8 0 5.2 1.6 6.3 4h41.1C57.7 5.4 62 2 67 2s9.3 3.4 10.6 8h41.1c1.1-2.4 3.5-4 6.3-4s5.2 1.6 6.3 4h46.3c1.1-2.4 3.5-4 6.3-4 3.9 0 7 3.1 7 7s-3.1 7-7 7z"/></symbol><symbol id="icon-tract-4-3" viewBox="0 0 193 26"><style>.st0{fill-rule:evenodd;clip-rule:evenodd}</style><path class="st0" d="M0 0v26h193V0H0zm183.9 20c-2.8 0-5.2-1.6-6.3-4h-42.1c-1.3 4.6-5.6 8-10.6 8s-9.3-3.4-10.6-8H73.2c-1.1 2.4-3.5 4-6.3 4s-5.2-1.6-6.3-4H15.3c-1.1 2.4-3.5 4-6.3 4-3.9 0-7-3.1-7-7s3.1-7 7-7c2.8 0 5.2 1.6 6.3 4h45.4c1.1-2.4 3.5-4 6.3-4s5.2 1.6 6.3 4h41c1.3-4.6 5.6-8 10.6-8s9.3 3.4 10.6 8h42.1c1.1-2.4 3.5-4 6.3-4 3.9 0 7 3.1 7 7s-3.1 7-7 7z"/></symbol><symbol id="icon-tract-4-4" viewBox="0 0 197 26"><style>.st0{fill-rule:evenodd;clip-rule:evenodd}</style><path class="st0" d="M0 0v26h197V0H0zm183.8 24c-5 0-9.3-3.4-10.6-8h-42.1c-1.1 2.4-3.5 4-6.3 4s-5.2-1.6-6.3-4H73.2c-1.1 2.4-3.5 4-6.3 4s-5.2-1.6-6.3-4H15.3c-1.1 2.4-3.5 4-6.3 4-3.9 0-7-3.1-7-7s3.1-7 7-7c2.8 0 5.2 1.6 6.3 4h45.4c1.1-2.4 3.5-4 6.3-4s5.2 1.6 6.3 4h45.2c1.1-2.4 3.5-4 6.3-4s5.2 1.6 6.3 4h42.1c1.3-4.6 5.6-8 10.6-8 6.1 0 11 4.9 11 11s-4.9 11-11 11z"/></symbol><symbol id="icon-tract-5-2" viewBox="0 0 193 26"><style>.st0{fill-rule:evenodd;clip-rule:evenodd}</style><path class="st0" d="M0 0v26h193V0H0zm183.8 20c-2.8 0-5.2-1.6-6.3-4h-30.3c-1.1 2.4-3.5 4-6.3 4s-5.2-1.6-6.3-4h-31.3c-1.1 2.4-3.5 4-6.3 4s-5.2-1.6-6.3-4H63.6c-1.3 4.6-5.6 8-10.6 8s-9.3-3.4-10.6-8H15.3c-1.1 2.4-3.5 4-6.3 4-3.9 0-7-3.1-7-7s3.1-7 7-7c2.8 0 5.2 1.6 6.3 4h27.1C43.7 5.4 48 2 53 2s9.3 3.4 10.6 8h27.1c1.1-2.4 3.5-4 6.3-4s5.2 1.6 6.3 4h31.3c1.1-2.4 3.5-4 6.3-4s5.2 1.6 6.3 4h30.3c1.1-2.4 3.5-4 6.3-4 3.9 0 7 3.1 7 7s-3.1 7-7 7z"/></symbol><symbol id="icon-tract-5-3" viewBox="0 0 193 26"><style>.st0{fill-rule:evenodd;clip-rule:evenodd}</style><path class="st0" d="M0 0v26h193V0H0zm183.9 20c-2.8 0-5.2-1.6-6.3-4h-30.3c-1.1 2.4-3.5 4-6.3 4s-5.2-1.6-6.3-4h-27.1c-1.3 4.6-5.6 8-10.6 8s-9.3-3.4-10.6-8H59.3c-1.1 2.4-3.5 4-6.3 4s-5.2-1.6-6.3-4H15.3c-1.1 2.4-3.5 4-6.3 4-3.9 0-7-3.1-7-7s3.1-7 7-7c2.8 0 5.2 1.6 6.3 4h31.3c1.1-2.4 3.5-4 6.3-4s5.2 1.6 6.3 4h27.1C87.7 5.4 92 2 97 2s9.3 3.4 10.6 8h27.1c1.1-2.4 3.5-4 6.3-4s5.2 1.6 6.3 4h30.3c1.1-2.4 3.5-4 6.3-4 3.9 0 7 3.1 7 7s-3.1 7-7 7z"/></symbol><symbol id="icon-tract-5-4" viewBox="0 0 193 26"><style>.st0{fill-rule:evenodd;clip-rule:evenodd}</style><path class="st0" d="M0 0v26h193V0H0zm183.8 20c-2.8 0-5.2-1.6-6.3-4h-26.1c-1.3 4.6-5.6 8-10.6 8s-9.3-3.4-10.6-8h-27.1c-1.1 2.4-3.5 4-6.3 4s-5.2-1.6-6.3-4H59.3c-1.1 2.4-3.5 4-6.3 4s-5.2-1.6-6.3-4H15.3c-1.1 2.4-3.5 4-6.3 4-3.9 0-7-3.1-7-7s3.1-7 7-7c2.8 0 5.2 1.6 6.3 4h31.3c1.1-2.4 3.5-4 6.3-4s5.2 1.6 6.3 4h31.3c1.1-2.4 3.5-4 6.3-4s5.2 1.6 6.3 4h27.1c1.3-4.6 5.6-8 10.6-8s9.3 3.4 10.6 8h26.1c1.1-2.4 3.5-4 6.3-4 3.9 0 7 3.1 7 7s-3.1 7-7 7z"/></symbol><symbol id="icon-tract-5-5" viewBox="0 0 197 26"><style>.st0{fill-rule:evenodd;clip-rule:evenodd}</style><path class="st0" d="M0 0v26h197V0H0zm183.7 24c-5 0-9.3-3.4-10.6-8H147c-1.1 2.4-3.5 4-6.3 4s-5.2-1.6-6.3-4h-31.3c-1.1 2.4-3.5 4-6.3 4s-5.2-1.6-6.3-4H59.3c-1.1 2.4-3.5 4-6.3 4s-5.2-1.6-6.3-4H15.3c-1.1 2.4-3.5 4-6.3 4-3.9 0-7-3.1-7-7s3.1-7 7-7c2.8 0 5.2 1.6 6.3 4h31.3c1.1-2.4 3.5-4 6.3-4s5.2 1.6 6.3 4h31.3c1.1-2.4 3.5-4 6.3-4s5.2 1.6 6.3 4h31.3c1.1-2.4 3.5-4 6.3-4s5.2 1.6 6.3 4h26.1c1.3-4.6 5.6-8 10.6-8 6.1 0 11 4.9 11 11s-4.9 11-11 11z"/></symbol><symbol id="icon-youtube" viewBox="0 0 512 512"><path d="M490.24 113.92c-13.888-24.704-28.96-29.248-59.648-30.976C399.936 80.864 322.848 80 256.064 80c-66.912 0-144.032.864-174.656 2.912-30.624 1.76-45.728 6.272-59.744 31.008C7.36 138.592 0 181.088 0 255.904v.256c0 74.496 7.36 117.312 21.664 141.728 14.016 24.704 29.088 29.184 59.712 31.264C112.032 430.944 189.152 432 256.064 432c66.784 0 143.872-1.056 174.56-2.816 30.688-2.08 45.76-6.56 59.648-31.264C504.704 373.504 512 330.688 512 256.192v-.256c0-74.848-7.296-117.344-21.76-142.016zM192 352V160l160 96-160 96z"/></symbol></svg>